<?xml version="1.0" encoding="UTF-8" standalone="no"?>
<!-- Created with Inkscape (http://www.inkscape.org/) -->

<svg
   width="206mm"
   height="206mm"
   viewBox="0 0 205.99999 205.99999"
   version="1.1"
   id="svg1"
   xml:space="preserve"
   inkscape:export-filename="logo.png"
   inkscape:export-xdpi="96"
   inkscape:export-ydpi="96"
   inkscape:version="1.4.2 (f4327f4, 2025-05-13)"
   sodipodi:docname="logo.svg"
   xmlns:inkscape="http://www.inkscape.org/namespaces/inkscape"
   xmlns:sodipodi="http://sodipodi.sourceforge.net/DTD/sodipodi-0.dtd"
   xmlns="http://www.w3.org/2000/svg"
   xmlns:svg="http://www.w3.org/2000/svg"><sodipodi:namedview
     id="namedview1"
     pagecolor="#ffffff"
     bordercolor="#000000"
     borderopacity="0.25"
     inkscape:showpageshadow="2"
     inkscape:pageopacity="0.0"
     inkscape:pagecheckerboard="0"
     inkscape:deskcolor="#d1d1d1"
     inkscape:document-units="mm"
     inkscape:zoom="0.19134069"
     inkscape:cx="1298.7306"
     inkscape:cy="190.75922"
     inkscape:window-width="2000"
     inkscape:window-height="1211"
     inkscape:window-x="1982"
     inkscape:window-y="104"
     inkscape:window-maximized="0"
     inkscape:current-layer="g1" /><defs
     id="defs1"><inkscape:path-effect
       effect="powerclip"
       message=""
       id="path-effect7"
       is_visible="true"
       lpeversion="1"
       inverse="true"
       flatten="false"
       hide_clip="false" /><filter
       id="mask-powermask-path-effect4_inverse"
       inkscape:label="filtermask-powermask-path-effect4"
       style="color-interpolation-filters:sRGB"
       height="100"
       width="100"
       x="-50"
       y="-50"><feColorMatrix
         id="mask-powermask-path-effect4_primitive1"
         values="1"
         type="saturate"
         result="fbSourceGraphic" /><feColorMatrix
         id="mask-powermask-path-effect4_primitive2"
         values="-1 0 0 0 1 0 -1 0 0 1 0 0 -1 0 1 0 0 0 1 0 "
         in="fbSourceGraphic" /></filter><clipPath
       clipPathUnits="userSpaceOnUse"
       id="clipPath7"><path
         id="path7"
         style="display:block;fill:#ffffff;stroke-width:313.838"
         d="m 256.30521,164.41432 h 20.35 v 4.95 h -20.35 z" /></clipPath></defs><g
     id="g1"
     transform="matrix(2.217087,0,0,2.217087,-123.94884,-73.278691)"
     style="fill:#7030a0;fill-opacity:1"><path
       d="m 88.963658,123.6812 c -2.510704,-2.51073 -2.655732,-3.33285 -2.655732,-15.05682 V 96.223341 L 73.226472,95.862374 C 56.335749,95.396281 56.013046,95.095777 56.013046,79.838935 c 0,-9.038761 0.322225,-10.963076 2.242465,-13.40463 2.19862,-2.795119 2.494675,-2.850819 15.147414,-2.850819 H 86.307926 V 51.09176 c 0,-11.820211 0.142793,-12.634479 2.655732,-15.147415 2.468717,-2.468768 3.424352,-2.655733 13.573662,-2.655733 10.1493,0 11.10493,0.18739 13.57371,2.655733 2.51293,2.512936 2.65573,3.327204 2.65573,15.147415 v 12.491726 h 12.79491 c 11.97538,0 12.94556,0.160351 15.14742,2.504081 2.09403,2.22903 2.35243,3.701984 2.35243,13.404684 0,15.653267 -0.26168,15.902248 -17.21335,16.370123 l -13.08141,0.360967 v 12.401039 c 0,11.72397 -0.14492,12.54609 -2.65573,15.05682 -2.46878,2.46874 -3.42441,2.65573 -13.57371,2.65573 -10.14931,0 -11.104945,-0.18689 -13.573662,-2.65573 z"
       style="fill:#7030a0;fill-opacity:1;stroke-width:4.0893"
       id="path1"
       sodipodi:nodetypes="cscsscscscscscsssccscsc" /><path
       d="m 100.56854,108.79722 c -2.88558,-0.77744 -4.684909,-3.26973 -4.684909,-6.48914 0,-3.680596 4.291439,-6.955686 7.796909,-5.950326 3.45163,0.98992 4.97042,2.90181 4.96712,6.252716 -0.002,2.02532 -1.37721,4.70952 -2.80415,5.47319 -1.20154,0.64304 -4.08766,1.03347 -5.27497,0.71356 z M 86.51695,92.975484 c -3.186741,-3.18675 -0.960599,-7.37943 5.620919,-10.586336 6.780711,-3.303976 13.927701,-3.272169 20.676861,0.09205 3.08987,1.540186 6.50121,4.794166 6.89218,6.574256 0.62639,2.8519 -2.50435,5.88316 -5.34092,5.17123 -0.64708,-0.16238 -2.2119,-1.15089 -3.47739,-2.19663 -2.68769,-2.22099 -4.99761,-3.02027 -8.72847,-3.02027 -3.55448,0 -5.44255,0.69254 -8.902868,3.26552 -3.381349,2.51424 -4.780881,2.65963 -6.740312,0.70021 z M 77.471319,82.080076 c -1.62826,-0.924115 -2.209467,-1.994778 -2.209467,-4.070102 0,-1.791768 0.306235,-2.271858 3.3142,-5.195655 3.700171,-3.596612 8.213523,-6.178268 13.870612,-7.934017 3.026074,-0.939184 4.776416,-1.1429 9.819906,-1.1429 7.01219,0 10.94356,0.947514 16.93652,4.081927 3.82966,2.002974 9.84272,7.352886 10.16619,9.045015 0.41209,2.155766 -0.53279,4.278571 -2.27402,5.108917 -2.26676,1.080943 -3.48187,0.632098 -6.85745,-2.533033 -10.06168,-9.434449 -25.577579,-9.444648 -35.988089,-0.02357 -3.135271,2.837242 -5.107074,3.612046 -6.778402,2.66349 z"
       style="fill:#ffffff;fill-opacity:1;stroke-width:1.85573"
       id="path1-42" /></g></svg>
